<mxfile host="app.diagrams.net" modified="2024-06-10T11:47:42.266Z" agent="Mozilla/5.0 (Windows NT 10.0; Win64; x64) AppleWebKit/537.36 (KHTML, like Gecko) Chrome/125.0.0.0 Safari/537.36" etag="_gfwFY4X4_-GS46gL6CQ" version="24.4.13" type="device">
  <diagram id="C5RBs43oDa-KdzZeNtuy" name="Page-1">
    <mxGraphModel dx="880" dy="500" grid="1" gridSize="10" guides="1" tooltips="1" connect="1" arrows="1" fold="1" page="1" pageScale="1" pageWidth="827" pageHeight="3000" math="0" shadow="0">
      <root>
        <mxCell id="WIyWlLk6GJQsqaUBKTNV-0" />
        <mxCell id="WIyWlLk6GJQsqaUBKTNV-1" parent="WIyWlLk6GJQsqaUBKTNV-0" />
        <mxCell id="WIyWlLk6GJQsqaUBKTNV-2" value="" style="rounded=0;html=1;jettySize=auto;orthogonalLoop=1;fontSize=11;endArrow=block;endFill=0;endSize=8;strokeWidth=1;shadow=0;labelBackgroundColor=none;edgeStyle=orthogonalEdgeStyle;" parent="WIyWlLk6GJQsqaUBKTNV-1" target="WIyWlLk6GJQsqaUBKTNV-6" edge="1">
          <mxGeometry relative="1" as="geometry">
            <mxPoint x="220" y="120" as="sourcePoint" />
          </mxGeometry>
        </mxCell>
        <mxCell id="WIyWlLk6GJQsqaUBKTNV-4" value="Call" style="rounded=0;html=1;jettySize=auto;orthogonalLoop=1;fontSize=11;endArrow=block;endFill=0;endSize=8;strokeWidth=1;shadow=0;labelBackgroundColor=none;edgeStyle=orthogonalEdgeStyle;" parent="WIyWlLk6GJQsqaUBKTNV-1" source="WIyWlLk6GJQsqaUBKTNV-6" target="WIyWlLk6GJQsqaUBKTNV-10" edge="1">
          <mxGeometry y="10" relative="1" as="geometry">
            <mxPoint as="offset" />
          </mxGeometry>
        </mxCell>
        <mxCell id="WIyWlLk6GJQsqaUBKTNV-5" value="For" style="edgeStyle=orthogonalEdgeStyle;rounded=0;html=1;jettySize=auto;orthogonalLoop=1;fontSize=11;endArrow=block;endFill=0;endSize=8;strokeWidth=1;shadow=0;labelBackgroundColor=none;" parent="WIyWlLk6GJQsqaUBKTNV-1" source="WIyWlLk6GJQsqaUBKTNV-6" target="WIyWlLk6GJQsqaUBKTNV-7" edge="1">
          <mxGeometry y="10" relative="1" as="geometry">
            <mxPoint as="offset" />
          </mxGeometry>
        </mxCell>
        <mxCell id="WIyWlLk6GJQsqaUBKTNV-6" value="GE_PLN_TRANSFORMATION_CALL.&lt;div&gt;GE_PLN_TRANSFORMATION_FLOW&lt;/div&gt;" style="rhombus;whiteSpace=wrap;html=1;shadow=0;fontFamily=Helvetica;fontSize=12;align=center;strokeWidth=1;spacing=6;spacingTop=-4;" parent="WIyWlLk6GJQsqaUBKTNV-1" vertex="1">
          <mxGeometry x="55" y="170" width="330" height="80" as="geometry" />
        </mxCell>
        <mxCell id="WIyWlLk6GJQsqaUBKTNV-7" value="Particular Activity Name" style="rounded=1;whiteSpace=wrap;html=1;fontSize=12;glass=0;strokeWidth=1;shadow=0;" parent="WIyWlLk6GJQsqaUBKTNV-1" vertex="1">
          <mxGeometry x="450" y="190" width="120" height="40" as="geometry" />
        </mxCell>
        <mxCell id="WIyWlLk6GJQsqaUBKTNV-8" value="" style="rounded=0;html=1;jettySize=auto;orthogonalLoop=1;fontSize=11;endArrow=block;endFill=0;endSize=8;strokeWidth=1;shadow=0;labelBackgroundColor=none;edgeStyle=orthogonalEdgeStyle;" parent="WIyWlLk6GJQsqaUBKTNV-1" source="WIyWlLk6GJQsqaUBKTNV-10" target="WIyWlLk6GJQsqaUBKTNV-11" edge="1">
          <mxGeometry x="0.3333" y="20" relative="1" as="geometry">
            <mxPoint as="offset" />
          </mxGeometry>
        </mxCell>
        <mxCell id="WIyWlLk6GJQsqaUBKTNV-9" value="To insert in" style="edgeStyle=orthogonalEdgeStyle;rounded=0;html=1;jettySize=auto;orthogonalLoop=1;fontSize=11;endArrow=block;endFill=0;endSize=8;strokeWidth=1;shadow=0;labelBackgroundColor=none;" parent="WIyWlLk6GJQsqaUBKTNV-1" source="WIyWlLk6GJQsqaUBKTNV-10" target="WIyWlLk6GJQsqaUBKTNV-12" edge="1">
          <mxGeometry y="10" relative="1" as="geometry">
            <mxPoint as="offset" />
          </mxGeometry>
        </mxCell>
        <mxCell id="WIyWlLk6GJQsqaUBKTNV-10" value="GE_IFACE_SPM_DETAILS.&lt;div&gt;GE_IFACE_SPM_INSERT&lt;/div&gt;" style="rhombus;whiteSpace=wrap;html=1;shadow=0;fontFamily=Helvetica;fontSize=12;align=center;strokeWidth=1;spacing=6;spacingTop=-4;" parent="WIyWlLk6GJQsqaUBKTNV-1" vertex="1">
          <mxGeometry x="95" y="290" width="250" height="80" as="geometry" />
        </mxCell>
        <mxCell id="O7JqDZxgjIwxTEev3LGb-3" value="" style="edgeStyle=orthogonalEdgeStyle;rounded=0;orthogonalLoop=1;jettySize=auto;html=1;" edge="1" parent="WIyWlLk6GJQsqaUBKTNV-1" source="WIyWlLk6GJQsqaUBKTNV-11" target="O7JqDZxgjIwxTEev3LGb-2">
          <mxGeometry relative="1" as="geometry" />
        </mxCell>
        <mxCell id="WIyWlLk6GJQsqaUBKTNV-11" value="Check if above procedure is already running for the activity name for the commenced within last 5 hours" style="rounded=1;whiteSpace=wrap;html=1;fontSize=12;glass=0;strokeWidth=1;shadow=0;" parent="WIyWlLk6GJQsqaUBKTNV-1" vertex="1">
          <mxGeometry x="65" y="430" width="310" height="40" as="geometry" />
        </mxCell>
        <mxCell id="WIyWlLk6GJQsqaUBKTNV-12" value=" GEMS_IFACE_SPM_TABLE for the activity name&lt;div&gt;with&amp;nbsp;status flag = ‘I’&lt;br&gt;&lt;/div&gt;" style="rounded=1;whiteSpace=wrap;html=1;fontSize=12;glass=0;strokeWidth=1;shadow=0;" parent="WIyWlLk6GJQsqaUBKTNV-1" vertex="1">
          <mxGeometry x="430" y="310" width="270" height="40" as="geometry" />
        </mxCell>
        <mxCell id="O7JqDZxgjIwxTEev3LGb-1" value="Yes" style="edgeStyle=orthogonalEdgeStyle;rounded=0;html=1;jettySize=auto;orthogonalLoop=1;fontSize=11;endArrow=block;endFill=0;endSize=8;strokeWidth=1;shadow=0;labelBackgroundColor=none;" edge="1" parent="WIyWlLk6GJQsqaUBKTNV-1" target="O7JqDZxgjIwxTEev3LGb-2">
          <mxGeometry y="10" relative="1" as="geometry">
            <mxPoint as="offset" />
            <mxPoint x="370" y="450" as="sourcePoint" />
          </mxGeometry>
        </mxCell>
        <mxCell id="O7JqDZxgjIwxTEev3LGb-2" value="Procedure throws error" style="rounded=1;whiteSpace=wrap;html=1;fontSize=12;glass=0;strokeWidth=1;shadow=0;" vertex="1" parent="WIyWlLk6GJQsqaUBKTNV-1">
          <mxGeometry x="440" y="430" width="90" height="40" as="geometry" />
        </mxCell>
        <mxCell id="O7JqDZxgjIwxTEev3LGb-5" value="No" style="rounded=0;html=1;jettySize=auto;orthogonalLoop=1;fontSize=11;endArrow=block;endFill=0;endSize=8;strokeWidth=1;shadow=0;labelBackgroundColor=none;edgeStyle=orthogonalEdgeStyle;" edge="1" parent="WIyWlLk6GJQsqaUBKTNV-1" target="O7JqDZxgjIwxTEev3LGb-6">
          <mxGeometry y="10" relative="1" as="geometry">
            <mxPoint as="offset" />
            <mxPoint x="220" y="470" as="sourcePoint" />
          </mxGeometry>
        </mxCell>
        <mxCell id="O7JqDZxgjIwxTEev3LGb-6" value=", Call GE_INBD_PRSD_STUB.&lt;div&gt;GE_INBD_PRSD_FLOW&amp;nbsp;&lt;/div&gt;&lt;div&gt;to execute first STUB.&lt;/div&gt;" style="rhombus;whiteSpace=wrap;html=1;shadow=0;fontFamily=Helvetica;fontSize=12;align=center;strokeWidth=1;spacing=6;spacingTop=-4;" vertex="1" parent="WIyWlLk6GJQsqaUBKTNV-1">
          <mxGeometry x="60" y="510" width="320" height="90" as="geometry" />
        </mxCell>
        <mxCell id="O7JqDZxgjIwxTEev3LGb-7" value="Check" style="rounded=0;html=1;jettySize=auto;orthogonalLoop=1;fontSize=11;endArrow=block;endFill=0;endSize=8;strokeWidth=1;shadow=0;labelBackgroundColor=none;edgeStyle=orthogonalEdgeStyle;" edge="1" parent="WIyWlLk6GJQsqaUBKTNV-1" target="O7JqDZxgjIwxTEev3LGb-8">
          <mxGeometry x="0.0107" y="20" relative="1" as="geometry">
            <mxPoint as="offset" />
            <mxPoint x="220" y="600" as="sourcePoint" />
          </mxGeometry>
        </mxCell>
        <mxCell id="O7JqDZxgjIwxTEev3LGb-8" value="If exist any&lt;br&gt;active rule for the activity name from GE_SPM_RULE_HEADERS_ALL" style="rhombus;whiteSpace=wrap;html=1;shadow=0;fontFamily=Helvetica;fontSize=12;align=center;strokeWidth=1;spacing=6;spacingTop=-4;" vertex="1" parent="WIyWlLk6GJQsqaUBKTNV-1">
          <mxGeometry x="70" y="640" width="300" height="90" as="geometry" />
        </mxCell>
        <mxCell id="O7JqDZxgjIwxTEev3LGb-12" value="Yes" style="rounded=0;html=1;jettySize=auto;orthogonalLoop=1;fontSize=11;endArrow=block;endFill=0;endSize=8;strokeWidth=1;shadow=0;labelBackgroundColor=none;edgeStyle=orthogonalEdgeStyle;" edge="1" parent="WIyWlLk6GJQsqaUBKTNV-1">
          <mxGeometry x="0.0107" y="20" relative="1" as="geometry">
            <mxPoint as="offset" />
            <mxPoint x="220" y="730" as="sourcePoint" />
            <mxPoint x="220" y="770" as="targetPoint" />
          </mxGeometry>
        </mxCell>
        <mxCell id="O7JqDZxgjIwxTEev3LGb-14" value="For every single rule stream" style="rounded=1;whiteSpace=wrap;html=1;fontSize=12;glass=0;strokeWidth=1;shadow=0;" vertex="1" parent="WIyWlLk6GJQsqaUBKTNV-1">
          <mxGeometry x="130" y="770" width="175" height="30" as="geometry" />
        </mxCell>
        <mxCell id="O7JqDZxgjIwxTEev3LGb-15" value="Call" style="rounded=0;html=1;jettySize=auto;orthogonalLoop=1;fontSize=11;endArrow=block;endFill=0;endSize=8;strokeWidth=1;shadow=0;labelBackgroundColor=none;edgeStyle=orthogonalEdgeStyle;" edge="1" parent="WIyWlLk6GJQsqaUBKTNV-1" target="O7JqDZxgjIwxTEev3LGb-16">
          <mxGeometry y="10" relative="1" as="geometry">
            <mxPoint as="offset" />
            <mxPoint x="217.5" y="800" as="sourcePoint" />
          </mxGeometry>
        </mxCell>
        <mxCell id="O7JqDZxgjIwxTEev3LGb-16" value="GE_PLN_TRANSFORMATION.&lt;div&gt;EXECUTE_TRANSFORMATION&amp;nbsp;&lt;br&gt;&lt;/div&gt;" style="rhombus;whiteSpace=wrap;html=1;shadow=0;fontFamily=Helvetica;fontSize=12;align=center;strokeWidth=1;spacing=6;spacingTop=-4;" vertex="1" parent="WIyWlLk6GJQsqaUBKTNV-1">
          <mxGeometry x="92.5" y="840" width="250" height="80" as="geometry" />
        </mxCell>
        <mxCell id="O7JqDZxgjIwxTEev3LGb-19" value="To&amp;nbsp;" style="edgeStyle=orthogonalEdgeStyle;rounded=0;html=1;jettySize=auto;orthogonalLoop=1;fontSize=11;endArrow=block;endFill=0;endSize=8;strokeWidth=1;shadow=0;labelBackgroundColor=none;" edge="1" parent="WIyWlLk6GJQsqaUBKTNV-1" target="O7JqDZxgjIwxTEev3LGb-20">
          <mxGeometry x="-0.1256" y="10" relative="1" as="geometry">
            <mxPoint as="offset" />
            <mxPoint x="342.5" y="880" as="sourcePoint" />
          </mxGeometry>
        </mxCell>
        <mxCell id="O7JqDZxgjIwxTEev3LGb-20" value="&lt;div&gt;&amp;nbsp;execute the INSERT query for IP flow&lt;br&gt;&lt;/div&gt;" style="rounded=1;whiteSpace=wrap;html=1;fontSize=12;glass=0;strokeWidth=1;shadow=0;" vertex="1" parent="WIyWlLk6GJQsqaUBKTNV-1">
          <mxGeometry x="385" y="865" width="212.5" height="30" as="geometry" />
        </mxCell>
        <mxCell id="O7JqDZxgjIwxTEev3LGb-24" style="edgeStyle=orthogonalEdgeStyle;rounded=0;orthogonalLoop=1;jettySize=auto;html=1;" edge="1" parent="WIyWlLk6GJQsqaUBKTNV-1" source="O7JqDZxgjIwxTEev3LGb-23" target="O7JqDZxgjIwxTEev3LGb-16">
          <mxGeometry relative="1" as="geometry" />
        </mxCell>
        <mxCell id="O7JqDZxgjIwxTEev3LGb-25" value="" style="edgeStyle=orthogonalEdgeStyle;rounded=0;orthogonalLoop=1;jettySize=auto;html=1;" edge="1" parent="WIyWlLk6GJQsqaUBKTNV-1" source="O7JqDZxgjIwxTEev3LGb-23" target="O7JqDZxgjIwxTEev3LGb-16">
          <mxGeometry relative="1" as="geometry" />
        </mxCell>
        <mxCell id="O7JqDZxgjIwxTEev3LGb-23" value="&lt;div&gt;Throw error&lt;br&gt;&lt;/div&gt;" style="rounded=1;whiteSpace=wrap;html=1;fontSize=12;glass=0;strokeWidth=1;shadow=0;" vertex="1" parent="WIyWlLk6GJQsqaUBKTNV-1">
          <mxGeometry x="414" y="910" width="106" height="30" as="geometry" />
        </mxCell>
        <mxCell id="O7JqDZxgjIwxTEev3LGb-26" value="&lt;span style=&quot;font-size: 11px;&quot;&gt;&lt;font style=&quot;font-size: 11px;&quot;&gt;Not&amp;nbsp;&lt;/font&gt;&lt;/span&gt;&lt;div style=&quot;font-size: 11px;&quot;&gt;&lt;font style=&quot;font-size: 11px;&quot;&gt;succesfull&lt;/font&gt;&lt;/div&gt;" style="text;html=1;align=center;verticalAlign=middle;resizable=0;points=[];autosize=1;strokeColor=none;fillColor=none;" vertex="1" parent="WIyWlLk6GJQsqaUBKTNV-1">
          <mxGeometry x="315" y="880" width="70" height="40" as="geometry" />
        </mxCell>
        <mxCell id="O7JqDZxgjIwxTEev3LGb-27" value="Call" style="rounded=0;html=1;jettySize=auto;orthogonalLoop=1;fontSize=11;endArrow=block;endFill=0;endSize=8;strokeWidth=1;shadow=0;labelBackgroundColor=none;edgeStyle=orthogonalEdgeStyle;" edge="1" parent="WIyWlLk6GJQsqaUBKTNV-1" target="O7JqDZxgjIwxTEev3LGb-28">
          <mxGeometry y="10" relative="1" as="geometry">
            <mxPoint as="offset" />
            <mxPoint x="220" y="920" as="sourcePoint" />
          </mxGeometry>
        </mxCell>
        <mxCell id="O7JqDZxgjIwxTEev3LGb-28" value="&lt;div&gt;GE_PLN_TRANSFORMATION.&lt;/div&gt;&lt;div&gt;EXECUTE_TRANSFORMATION&amp;nbsp;&amp;nbsp;&lt;br&gt;&lt;/div&gt;" style="rhombus;whiteSpace=wrap;html=1;shadow=0;fontFamily=Helvetica;fontSize=12;align=center;strokeWidth=1;spacing=6;spacingTop=-4;" vertex="1" parent="WIyWlLk6GJQsqaUBKTNV-1">
          <mxGeometry x="95" y="960" width="250" height="80" as="geometry" />
        </mxCell>
        <mxCell id="O7JqDZxgjIwxTEev3LGb-29" value="To&amp;nbsp;" style="edgeStyle=orthogonalEdgeStyle;rounded=0;html=1;jettySize=auto;orthogonalLoop=1;fontSize=11;endArrow=block;endFill=0;endSize=8;strokeWidth=1;shadow=0;labelBackgroundColor=none;" edge="1" parent="WIyWlLk6GJQsqaUBKTNV-1" target="O7JqDZxgjIwxTEev3LGb-30">
          <mxGeometry x="-0.1256" y="10" relative="1" as="geometry">
            <mxPoint as="offset" />
            <mxPoint x="345" y="1000" as="sourcePoint" />
          </mxGeometry>
        </mxCell>
        <mxCell id="O7JqDZxgjIwxTEev3LGb-30" value="&lt;div&gt;&amp;nbsp;execute the UPDATE query for IP flow&lt;br&gt;&lt;/div&gt;" style="rounded=1;whiteSpace=wrap;html=1;fontSize=12;glass=0;strokeWidth=1;shadow=0;" vertex="1" parent="WIyWlLk6GJQsqaUBKTNV-1">
          <mxGeometry x="387.5" y="985" width="212.5" height="30" as="geometry" />
        </mxCell>
        <mxCell id="O7JqDZxgjIwxTEev3LGb-31" style="edgeStyle=orthogonalEdgeStyle;rounded=0;orthogonalLoop=1;jettySize=auto;html=1;" edge="1" parent="WIyWlLk6GJQsqaUBKTNV-1" source="O7JqDZxgjIwxTEev3LGb-33" target="O7JqDZxgjIwxTEev3LGb-28">
          <mxGeometry relative="1" as="geometry" />
        </mxCell>
        <mxCell id="O7JqDZxgjIwxTEev3LGb-32" value="" style="edgeStyle=orthogonalEdgeStyle;rounded=0;orthogonalLoop=1;jettySize=auto;html=1;" edge="1" parent="WIyWlLk6GJQsqaUBKTNV-1" source="O7JqDZxgjIwxTEev3LGb-33" target="O7JqDZxgjIwxTEev3LGb-28">
          <mxGeometry relative="1" as="geometry" />
        </mxCell>
        <mxCell id="O7JqDZxgjIwxTEev3LGb-33" value="&lt;div&gt;Throw error&lt;br&gt;&lt;/div&gt;" style="rounded=1;whiteSpace=wrap;html=1;fontSize=12;glass=0;strokeWidth=1;shadow=0;" vertex="1" parent="WIyWlLk6GJQsqaUBKTNV-1">
          <mxGeometry x="416.5" y="1030" width="106" height="30" as="geometry" />
        </mxCell>
        <mxCell id="O7JqDZxgjIwxTEev3LGb-34" value="&lt;span style=&quot;font-size: 11px;&quot;&gt;&lt;font style=&quot;font-size: 11px;&quot;&gt;Not&amp;nbsp;&lt;/font&gt;&lt;/span&gt;&lt;div style=&quot;font-size: 11px;&quot;&gt;&lt;font style=&quot;font-size: 11px;&quot;&gt;succesfull&lt;/font&gt;&lt;/div&gt;" style="text;html=1;align=center;verticalAlign=middle;resizable=0;points=[];autosize=1;strokeColor=none;fillColor=none;" vertex="1" parent="WIyWlLk6GJQsqaUBKTNV-1">
          <mxGeometry x="317.5" y="1000" width="70" height="40" as="geometry" />
        </mxCell>
        <mxCell id="O7JqDZxgjIwxTEev3LGb-36" value="&lt;font style=&quot;font-size: 11px;&quot;&gt;Call&lt;/font&gt;" style="text;html=1;align=center;verticalAlign=middle;resizable=0;points=[];autosize=1;strokeColor=none;fillColor=none;" vertex="1" parent="WIyWlLk6GJQsqaUBKTNV-1">
          <mxGeometry x="210" y="118" width="40" height="30" as="geometry" />
        </mxCell>
        <mxCell id="O7JqDZxgjIwxTEev3LGb-39" value="No" style="rounded=0;html=1;jettySize=auto;orthogonalLoop=1;fontSize=11;endArrow=block;endFill=0;endSize=8;strokeWidth=1;shadow=0;labelBackgroundColor=none;edgeStyle=orthogonalEdgeStyle;" edge="1" parent="WIyWlLk6GJQsqaUBKTNV-1" target="O7JqDZxgjIwxTEev3LGb-40">
          <mxGeometry y="10" relative="1" as="geometry">
            <mxPoint as="offset" />
            <mxPoint x="220" y="1039" as="sourcePoint" />
          </mxGeometry>
        </mxCell>
        <mxCell id="O7JqDZxgjIwxTEev3LGb-40" value="GE_PRSD_SPM_STUB.&lt;div&gt;GE_PRSD_SPM_FLOW&amp;nbsp;&lt;span style=&quot;background-color: initial;&quot;&gt;to&lt;/span&gt;&lt;/div&gt;&lt;div&gt;execute the next STUB&lt;br&gt;&lt;/div&gt;" style="rhombus;whiteSpace=wrap;html=1;shadow=0;fontFamily=Helvetica;fontSize=12;align=center;strokeWidth=1;spacing=6;spacingTop=-4;" vertex="1" parent="WIyWlLk6GJQsqaUBKTNV-1">
          <mxGeometry x="75" y="1079" width="290" height="81" as="geometry" />
        </mxCell>
        <mxCell id="O7JqDZxgjIwxTEev3LGb-41" value="" style="endArrow=classic;html=1;rounded=0;exitX=1;exitY=0.5;exitDx=0;exitDy=0;entryX=1;entryY=0.5;entryDx=0;entryDy=0;" edge="1" parent="WIyWlLk6GJQsqaUBKTNV-1" source="O7JqDZxgjIwxTEev3LGb-8" target="O7JqDZxgjIwxTEev3LGb-40">
          <mxGeometry width="50" height="50" relative="1" as="geometry">
            <mxPoint x="370" y="690" as="sourcePoint" />
            <mxPoint x="640" y="1280" as="targetPoint" />
            <Array as="points">
              <mxPoint x="620" y="685" />
              <mxPoint x="620" y="1120" />
            </Array>
          </mxGeometry>
        </mxCell>
        <mxCell id="O7JqDZxgjIwxTEev3LGb-42" value="&lt;font style=&quot;font-size: 11px;&quot;&gt;No&lt;/font&gt;" style="text;html=1;align=center;verticalAlign=middle;resizable=0;points=[];autosize=1;strokeColor=none;fillColor=none;" vertex="1" parent="WIyWlLk6GJQsqaUBKTNV-1">
          <mxGeometry x="460" y="660" width="40" height="30" as="geometry" />
        </mxCell>
        <mxCell id="O7JqDZxgjIwxTEev3LGb-43" value="After&amp;nbsp;&lt;div&gt;completion&lt;/div&gt;" style="rounded=0;html=1;jettySize=auto;orthogonalLoop=1;fontSize=11;endArrow=block;endFill=0;endSize=8;strokeWidth=1;shadow=0;labelBackgroundColor=none;edgeStyle=orthogonalEdgeStyle;" edge="1" parent="WIyWlLk6GJQsqaUBKTNV-1" target="O7JqDZxgjIwxTEev3LGb-44">
          <mxGeometry x="0.0284" y="35" relative="1" as="geometry">
            <mxPoint x="34" y="-36" as="offset" />
            <mxPoint x="225" y="1160" as="sourcePoint" />
          </mxGeometry>
        </mxCell>
        <mxCell id="O7JqDZxgjIwxTEev3LGb-44" value="Check if there exist any&lt;br&gt;SPM enabled active rule for the activity name from&lt;br&gt;GE_SPM_RULE_HEADERS_ALL." style="rhombus;whiteSpace=wrap;html=1;shadow=0;fontFamily=Helvetica;fontSize=12;align=center;strokeWidth=1;spacing=6;spacingTop=-4;" vertex="1" parent="WIyWlLk6GJQsqaUBKTNV-1">
          <mxGeometry x="60" y="1200" width="330" height="90" as="geometry" />
        </mxCell>
        <mxCell id="O7JqDZxgjIwxTEev3LGb-45" value="Yes" style="rounded=0;html=1;jettySize=auto;orthogonalLoop=1;fontSize=11;endArrow=block;endFill=0;endSize=8;strokeWidth=1;shadow=0;labelBackgroundColor=none;edgeStyle=orthogonalEdgeStyle;" edge="1" parent="WIyWlLk6GJQsqaUBKTNV-1">
          <mxGeometry x="0.0107" y="20" relative="1" as="geometry">
            <mxPoint as="offset" />
            <mxPoint x="225" y="1290" as="sourcePoint" />
            <mxPoint x="225" y="1330" as="targetPoint" />
          </mxGeometry>
        </mxCell>
        <mxCell id="O7JqDZxgjIwxTEev3LGb-46" value="For every single rule stream" style="rounded=1;whiteSpace=wrap;html=1;fontSize=12;glass=0;strokeWidth=1;shadow=0;" vertex="1" parent="WIyWlLk6GJQsqaUBKTNV-1">
          <mxGeometry x="135" y="1330" width="175" height="30" as="geometry" />
        </mxCell>
        <mxCell id="O7JqDZxgjIwxTEev3LGb-47" value="Call" style="rounded=0;html=1;jettySize=auto;orthogonalLoop=1;fontSize=11;endArrow=block;endFill=0;endSize=8;strokeWidth=1;shadow=0;labelBackgroundColor=none;edgeStyle=orthogonalEdgeStyle;" edge="1" parent="WIyWlLk6GJQsqaUBKTNV-1" target="O7JqDZxgjIwxTEev3LGb-48">
          <mxGeometry y="10" relative="1" as="geometry">
            <mxPoint as="offset" />
            <mxPoint x="222.5" y="1360" as="sourcePoint" />
          </mxGeometry>
        </mxCell>
        <mxCell id="O7JqDZxgjIwxTEev3LGb-48" value="GE_PLN_TRANSFORMATION.&lt;div&gt;EXECUTE_TRANSFORMATION&amp;nbsp;&lt;br&gt;&lt;/div&gt;" style="rhombus;whiteSpace=wrap;html=1;shadow=0;fontFamily=Helvetica;fontSize=12;align=center;strokeWidth=1;spacing=6;spacingTop=-4;" vertex="1" parent="WIyWlLk6GJQsqaUBKTNV-1">
          <mxGeometry x="97.5" y="1400" width="250" height="80" as="geometry" />
        </mxCell>
        <mxCell id="O7JqDZxgjIwxTEev3LGb-49" value="To&amp;nbsp;" style="edgeStyle=orthogonalEdgeStyle;rounded=0;html=1;jettySize=auto;orthogonalLoop=1;fontSize=11;endArrow=block;endFill=0;endSize=8;strokeWidth=1;shadow=0;labelBackgroundColor=none;" edge="1" parent="WIyWlLk6GJQsqaUBKTNV-1" target="O7JqDZxgjIwxTEev3LGb-50">
          <mxGeometry x="-0.1256" y="10" relative="1" as="geometry">
            <mxPoint as="offset" />
            <mxPoint x="347.5" y="1440" as="sourcePoint" />
          </mxGeometry>
        </mxCell>
        <mxCell id="O7JqDZxgjIwxTEev3LGb-50" value="&lt;div&gt;&amp;nbsp;execute the INSERT query for PS flow&lt;br&gt;&lt;/div&gt;" style="rounded=1;whiteSpace=wrap;html=1;fontSize=12;glass=0;strokeWidth=1;shadow=0;" vertex="1" parent="WIyWlLk6GJQsqaUBKTNV-1">
          <mxGeometry x="390" y="1425" width="212.5" height="30" as="geometry" />
        </mxCell>
        <mxCell id="O7JqDZxgjIwxTEev3LGb-51" style="edgeStyle=orthogonalEdgeStyle;rounded=0;orthogonalLoop=1;jettySize=auto;html=1;" edge="1" parent="WIyWlLk6GJQsqaUBKTNV-1" source="O7JqDZxgjIwxTEev3LGb-53" target="O7JqDZxgjIwxTEev3LGb-48">
          <mxGeometry relative="1" as="geometry" />
        </mxCell>
        <mxCell id="O7JqDZxgjIwxTEev3LGb-52" value="" style="edgeStyle=orthogonalEdgeStyle;rounded=0;orthogonalLoop=1;jettySize=auto;html=1;" edge="1" parent="WIyWlLk6GJQsqaUBKTNV-1" source="O7JqDZxgjIwxTEev3LGb-53" target="O7JqDZxgjIwxTEev3LGb-48">
          <mxGeometry relative="1" as="geometry" />
        </mxCell>
        <mxCell id="O7JqDZxgjIwxTEev3LGb-53" value="&lt;div&gt;Throw error&lt;br&gt;&lt;/div&gt;" style="rounded=1;whiteSpace=wrap;html=1;fontSize=12;glass=0;strokeWidth=1;shadow=0;" vertex="1" parent="WIyWlLk6GJQsqaUBKTNV-1">
          <mxGeometry x="419" y="1470" width="106" height="30" as="geometry" />
        </mxCell>
        <mxCell id="O7JqDZxgjIwxTEev3LGb-54" value="&lt;span style=&quot;font-size: 11px;&quot;&gt;&lt;font style=&quot;font-size: 11px;&quot;&gt;Not&amp;nbsp;&lt;/font&gt;&lt;/span&gt;&lt;div style=&quot;font-size: 11px;&quot;&gt;&lt;font style=&quot;font-size: 11px;&quot;&gt;succesfull&lt;/font&gt;&lt;/div&gt;" style="text;html=1;align=center;verticalAlign=middle;resizable=0;points=[];autosize=1;strokeColor=none;fillColor=none;" vertex="1" parent="WIyWlLk6GJQsqaUBKTNV-1">
          <mxGeometry x="320" y="1440" width="70" height="40" as="geometry" />
        </mxCell>
        <mxCell id="O7JqDZxgjIwxTEev3LGb-55" value="Call" style="rounded=0;html=1;jettySize=auto;orthogonalLoop=1;fontSize=11;endArrow=block;endFill=0;endSize=8;strokeWidth=1;shadow=0;labelBackgroundColor=none;edgeStyle=orthogonalEdgeStyle;" edge="1" parent="WIyWlLk6GJQsqaUBKTNV-1" target="O7JqDZxgjIwxTEev3LGb-56">
          <mxGeometry y="10" relative="1" as="geometry">
            <mxPoint as="offset" />
            <mxPoint x="225" y="1480" as="sourcePoint" />
          </mxGeometry>
        </mxCell>
        <mxCell id="O7JqDZxgjIwxTEev3LGb-56" value="&lt;div&gt;GE_PLN_TRANSFORMATION.&lt;/div&gt;&lt;div&gt;EXECUTE_TRANSFORMATION&amp;nbsp;&amp;nbsp;&lt;br&gt;&lt;/div&gt;" style="rhombus;whiteSpace=wrap;html=1;shadow=0;fontFamily=Helvetica;fontSize=12;align=center;strokeWidth=1;spacing=6;spacingTop=-4;" vertex="1" parent="WIyWlLk6GJQsqaUBKTNV-1">
          <mxGeometry x="100" y="1520" width="250" height="80" as="geometry" />
        </mxCell>
        <mxCell id="O7JqDZxgjIwxTEev3LGb-57" value="To&amp;nbsp;" style="edgeStyle=orthogonalEdgeStyle;rounded=0;html=1;jettySize=auto;orthogonalLoop=1;fontSize=11;endArrow=block;endFill=0;endSize=8;strokeWidth=1;shadow=0;labelBackgroundColor=none;" edge="1" parent="WIyWlLk6GJQsqaUBKTNV-1" target="O7JqDZxgjIwxTEev3LGb-58">
          <mxGeometry x="-0.1256" y="10" relative="1" as="geometry">
            <mxPoint as="offset" />
            <mxPoint x="350" y="1560" as="sourcePoint" />
          </mxGeometry>
        </mxCell>
        <mxCell id="O7JqDZxgjIwxTEev3LGb-58" value="&lt;div&gt;&amp;nbsp;execute the UPDATE query for PS flow&lt;br&gt;&lt;/div&gt;" style="rounded=1;whiteSpace=wrap;html=1;fontSize=12;glass=0;strokeWidth=1;shadow=0;" vertex="1" parent="WIyWlLk6GJQsqaUBKTNV-1">
          <mxGeometry x="392.5" y="1545" width="217.5" height="30" as="geometry" />
        </mxCell>
        <mxCell id="O7JqDZxgjIwxTEev3LGb-59" style="edgeStyle=orthogonalEdgeStyle;rounded=0;orthogonalLoop=1;jettySize=auto;html=1;" edge="1" parent="WIyWlLk6GJQsqaUBKTNV-1" source="O7JqDZxgjIwxTEev3LGb-61" target="O7JqDZxgjIwxTEev3LGb-56">
          <mxGeometry relative="1" as="geometry" />
        </mxCell>
        <mxCell id="O7JqDZxgjIwxTEev3LGb-60" value="" style="edgeStyle=orthogonalEdgeStyle;rounded=0;orthogonalLoop=1;jettySize=auto;html=1;" edge="1" parent="WIyWlLk6GJQsqaUBKTNV-1" source="O7JqDZxgjIwxTEev3LGb-61" target="O7JqDZxgjIwxTEev3LGb-56">
          <mxGeometry relative="1" as="geometry" />
        </mxCell>
        <mxCell id="O7JqDZxgjIwxTEev3LGb-61" value="&lt;div&gt;Throw error&lt;br&gt;&lt;/div&gt;" style="rounded=1;whiteSpace=wrap;html=1;fontSize=12;glass=0;strokeWidth=1;shadow=0;" vertex="1" parent="WIyWlLk6GJQsqaUBKTNV-1">
          <mxGeometry x="421.5" y="1590" width="106" height="30" as="geometry" />
        </mxCell>
        <mxCell id="O7JqDZxgjIwxTEev3LGb-62" value="&lt;span style=&quot;font-size: 11px;&quot;&gt;&lt;font style=&quot;font-size: 11px;&quot;&gt;Not&amp;nbsp;&lt;/font&gt;&lt;/span&gt;&lt;div style=&quot;font-size: 11px;&quot;&gt;&lt;font style=&quot;font-size: 11px;&quot;&gt;succesfull&lt;/font&gt;&lt;/div&gt;" style="text;html=1;align=center;verticalAlign=middle;resizable=0;points=[];autosize=1;strokeColor=none;fillColor=none;" vertex="1" parent="WIyWlLk6GJQsqaUBKTNV-1">
          <mxGeometry x="322.5" y="1560" width="70" height="40" as="geometry" />
        </mxCell>
        <mxCell id="O7JqDZxgjIwxTEev3LGb-63" value="No" style="rounded=0;html=1;jettySize=auto;orthogonalLoop=1;fontSize=11;endArrow=block;endFill=0;endSize=8;strokeWidth=1;shadow=0;labelBackgroundColor=none;edgeStyle=orthogonalEdgeStyle;" edge="1" parent="WIyWlLk6GJQsqaUBKTNV-1" target="O7JqDZxgjIwxTEev3LGb-64">
          <mxGeometry y="10" relative="1" as="geometry">
            <mxPoint as="offset" />
            <mxPoint x="225" y="1599" as="sourcePoint" />
          </mxGeometry>
        </mxCell>
        <mxCell id="O7JqDZxgjIwxTEev3LGb-64" value="&lt;div&gt;GE_SPM_STUB_LOGIC.&lt;/div&gt;&lt;div&gt;GE_SPM_FLOW&amp;nbsp;&lt;span style=&quot;background-color: initial;&quot;&gt;to&lt;/span&gt;&lt;/div&gt;&lt;div&gt;execute the next STUB&lt;br&gt;&lt;/div&gt;" style="rhombus;whiteSpace=wrap;html=1;shadow=0;fontFamily=Helvetica;fontSize=12;align=center;strokeWidth=1;spacing=6;spacingTop=-4;" vertex="1" parent="WIyWlLk6GJQsqaUBKTNV-1">
          <mxGeometry x="80" y="1639" width="290" height="81" as="geometry" />
        </mxCell>
        <mxCell id="O7JqDZxgjIwxTEev3LGb-65" value="" style="endArrow=classic;html=1;rounded=0;exitX=1;exitY=0.5;exitDx=0;exitDy=0;entryX=1;entryY=0.5;entryDx=0;entryDy=0;" edge="1" parent="WIyWlLk6GJQsqaUBKTNV-1" source="O7JqDZxgjIwxTEev3LGb-44" target="O7JqDZxgjIwxTEev3LGb-64">
          <mxGeometry width="50" height="50" relative="1" as="geometry">
            <mxPoint x="375" y="1250" as="sourcePoint" />
            <mxPoint x="645" y="1840" as="targetPoint" />
            <Array as="points">
              <mxPoint x="625" y="1245" />
              <mxPoint x="625" y="1680" />
            </Array>
          </mxGeometry>
        </mxCell>
        <mxCell id="O7JqDZxgjIwxTEev3LGb-66" value="&lt;font style=&quot;font-size: 11px;&quot;&gt;No&lt;/font&gt;" style="text;html=1;align=center;verticalAlign=middle;resizable=0;points=[];autosize=1;strokeColor=none;fillColor=none;" vertex="1" parent="WIyWlLk6GJQsqaUBKTNV-1">
          <mxGeometry x="465" y="1220" width="40" height="30" as="geometry" />
        </mxCell>
        <mxCell id="O7JqDZxgjIwxTEev3LGb-67" value="Yes" style="rounded=0;html=1;jettySize=auto;orthogonalLoop=1;fontSize=11;endArrow=block;endFill=0;endSize=8;strokeWidth=1;shadow=0;labelBackgroundColor=none;edgeStyle=orthogonalEdgeStyle;" edge="1" parent="WIyWlLk6GJQsqaUBKTNV-1">
          <mxGeometry x="0.0107" y="20" relative="1" as="geometry">
            <mxPoint as="offset" />
            <mxPoint x="227.5" y="1720" as="sourcePoint" />
            <mxPoint x="227.5" y="1760" as="targetPoint" />
          </mxGeometry>
        </mxCell>
        <mxCell id="O7JqDZxgjIwxTEev3LGb-68" value="After successful execution of this STUB, IFACE table&lt;br/&gt;(GEMS_IFACE_SPM_TABLE) is UPDATED with the STATUS ‘C’" style="rounded=1;whiteSpace=wrap;html=1;fontSize=12;glass=0;strokeWidth=1;shadow=0;" vertex="1" parent="WIyWlLk6GJQsqaUBKTNV-1">
          <mxGeometry x="90" y="1760" width="290" height="50" as="geometry" />
        </mxCell>
        <mxCell id="O7JqDZxgjIwxTEev3LGb-69" value="" style="rounded=0;html=1;jettySize=auto;orthogonalLoop=1;fontSize=11;endArrow=block;endFill=0;endSize=8;strokeWidth=1;shadow=0;labelBackgroundColor=none;edgeStyle=orthogonalEdgeStyle;" edge="1" parent="WIyWlLk6GJQsqaUBKTNV-1">
          <mxGeometry x="0.0107" y="20" relative="1" as="geometry">
            <mxPoint as="offset" />
            <mxPoint x="230" y="1810" as="sourcePoint" />
            <mxPoint x="230" y="1850" as="targetPoint" />
          </mxGeometry>
        </mxCell>
        <mxCell id="O7JqDZxgjIwxTEev3LGb-71" value="GE_PLN_TRANSFORMATION_CALL then will check if the&lt;br&gt;GE_SPM_STUB is &lt;b&gt;called by Middleware or not&lt;/b&gt; from the lookup value against the activity name.&amp;nbsp;" style="rounded=1;whiteSpace=wrap;html=1;fontSize=12;glass=0;strokeWidth=1;shadow=0;" vertex="1" parent="WIyWlLk6GJQsqaUBKTNV-1">
          <mxGeometry x="75" y="1850" width="320" height="60" as="geometry" />
        </mxCell>
        <mxCell id="O7JqDZxgjIwxTEev3LGb-72" value="" style="edgeStyle=orthogonalEdgeStyle;rounded=0;orthogonalLoop=1;jettySize=auto;html=1;exitX=0.984;exitY=0.5;exitDx=0;exitDy=0;exitPerimeter=0;" edge="1" parent="WIyWlLk6GJQsqaUBKTNV-1" target="O7JqDZxgjIwxTEev3LGb-73" source="O7JqDZxgjIwxTEev3LGb-71">
          <mxGeometry relative="1" as="geometry">
            <mxPoint x="400" y="1880" as="sourcePoint" />
          </mxGeometry>
        </mxCell>
        <mxCell id="O7JqDZxgjIwxTEev3LGb-73" value="Procedure itself will call the below STUB" style="rounded=1;whiteSpace=wrap;html=1;fontSize=12;glass=0;strokeWidth=1;shadow=0;" vertex="1" parent="WIyWlLk6GJQsqaUBKTNV-1">
          <mxGeometry x="480" y="1867.5" width="230" height="25" as="geometry" />
        </mxCell>
        <mxCell id="O7JqDZxgjIwxTEev3LGb-75" value="Not Called" style="text;html=1;align=center;verticalAlign=middle;resizable=0;points=[];autosize=1;strokeColor=none;fillColor=none;fontSize=11;" vertex="1" parent="WIyWlLk6GJQsqaUBKTNV-1">
          <mxGeometry x="397.5" y="1860" width="70" height="30" as="geometry" />
        </mxCell>
        <mxCell id="O7JqDZxgjIwxTEev3LGb-76" value="Call" style="rounded=0;html=1;jettySize=auto;orthogonalLoop=1;fontSize=11;endArrow=block;endFill=0;endSize=8;strokeWidth=1;shadow=0;labelBackgroundColor=none;edgeStyle=orthogonalEdgeStyle;" edge="1" parent="WIyWlLk6GJQsqaUBKTNV-1" target="O7JqDZxgjIwxTEev3LGb-77">
          <mxGeometry y="10" relative="1" as="geometry">
            <mxPoint as="offset" />
            <mxPoint x="230" y="1910" as="sourcePoint" />
          </mxGeometry>
        </mxCell>
        <mxCell id="O7JqDZxgjIwxTEev3LGb-77" value="&lt;div&gt;GE_SPM_STUB.&lt;/div&gt;&lt;div&gt;GE_SPM_FLOW&amp;nbsp;to execute the&amp;nbsp;&lt;/div&gt;&lt;div&gt;final STUB.&lt;br&gt;&lt;/div&gt;" style="rhombus;whiteSpace=wrap;html=1;shadow=0;fontFamily=Helvetica;fontSize=12;align=center;strokeWidth=1;spacing=6;spacingTop=-4;" vertex="1" parent="WIyWlLk6GJQsqaUBKTNV-1">
          <mxGeometry x="92.5" y="1950" width="275" height="70" as="geometry" />
        </mxCell>
        <mxCell id="O7JqDZxgjIwxTEev3LGb-78" value="" style="rounded=0;html=1;jettySize=auto;orthogonalLoop=1;fontSize=11;endArrow=block;endFill=0;endSize=8;strokeWidth=1;shadow=0;labelBackgroundColor=none;edgeStyle=orthogonalEdgeStyle;" edge="1" parent="WIyWlLk6GJQsqaUBKTNV-1">
          <mxGeometry x="0.0107" y="20" relative="1" as="geometry">
            <mxPoint as="offset" />
            <mxPoint x="230" y="2020" as="sourcePoint" />
            <mxPoint x="230" y="2060" as="targetPoint" />
          </mxGeometry>
        </mxCell>
        <mxCell id="O7JqDZxgjIwxTEev3LGb-79" value="IFACE table (GEMS_IFACE_SPM_TABLE) is&lt;br&gt;UPDATED with the &lt;b&gt;STATUS ‘C’&lt;/b&gt;" style="rounded=1;whiteSpace=wrap;html=1;fontSize=12;glass=0;strokeWidth=1;shadow=0;" vertex="1" parent="WIyWlLk6GJQsqaUBKTNV-1">
          <mxGeometry x="110" y="2060" width="255" height="50" as="geometry" />
        </mxCell>
        <mxCell id="O7JqDZxgjIwxTEev3LGb-80" value="After successful&amp;nbsp;&lt;div style=&quot;font-size: 11px;&quot;&gt;execution&lt;/div&gt;" style="text;html=1;align=center;verticalAlign=middle;resizable=0;points=[];autosize=1;strokeColor=none;fillColor=none;fontSize=11;" vertex="1" parent="WIyWlLk6GJQsqaUBKTNV-1">
          <mxGeometry x="222.5" y="2020" width="100" height="40" as="geometry" />
        </mxCell>
        <mxCell id="O7JqDZxgjIwxTEev3LGb-81" value="" style="rounded=0;html=1;jettySize=auto;orthogonalLoop=1;fontSize=11;endArrow=block;endFill=0;endSize=8;strokeWidth=1;shadow=0;labelBackgroundColor=none;edgeStyle=orthogonalEdgeStyle;" edge="1" parent="WIyWlLk6GJQsqaUBKTNV-1">
          <mxGeometry x="0.0107" y="20" relative="1" as="geometry">
            <mxPoint as="offset" />
            <mxPoint x="230" y="2110" as="sourcePoint" />
            <mxPoint x="230" y="2150" as="targetPoint" />
          </mxGeometry>
        </mxCell>
        <mxCell id="O7JqDZxgjIwxTEev3LGb-82" value="GE_PLN_REQUEST_SET procedure is introduced which will be invoked to&lt;br&gt;&lt;b&gt;call child transformations within any Parent transformations&lt;/b&gt; at multiple&lt;br&gt;levels.&lt;br&gt;The sequence and control will be defined in&lt;br&gt;‘GE_PLN_&lt;b&gt;FUNCTIONAL_MAPPING_TBL&lt;/b&gt;’ Table where &lt;b&gt;MAPPING_TYPE is&lt;br&gt;&#39;REQUESTSET&#39;&lt;/b&gt;." style="rounded=1;whiteSpace=wrap;html=1;fontSize=12;glass=0;strokeWidth=1;shadow=0;" vertex="1" parent="WIyWlLk6GJQsqaUBKTNV-1">
          <mxGeometry x="25" y="2150" width="420" height="100" as="geometry" />
        </mxCell>
      </root>
    </mxGraphModel>
  </diagram>
</mxfile>
